# xmcd
#
# Track frame offsets: 
#        183
#        22158
#        39333
#        59508
#        78258
#        96783
#        107658
#        118083
#        134958
#        145533
#        157908
#        159933
#        204858
#        247833
#        281733
#        308133
#
# Disc length: 4308 seconds
#
# Revision: 4
# Processed by: cddbd v1.5.2PL0 Copyright (c) Steve Scherf et al.
# Submitted via: ExactAudioCopy v0.99pb5
#
DISCID=d310d210
DTITLE=Roland Kirk - "Rahsaan" The Complete Mercury Recordings Disc 2
DYEAR=1990
DGENRE=Jazz
TTITLE0=Get out of town
TTITLE1=Rolando
TTITLE2=I believe in you
TTITLE3=Where Monk and Mingus live - Let's call this [Alternate take]
TTITLE4=Domino [Alternate take]
TTITLE5=E.D.
TTITLE6=I didn't know what time it was [Alternate take]
TTITLE7=Someone to watch over me [Alternate take]
TTITLE8=Termini's corner [Previously unissued master]
TTITLE9=When the sun comes out [Previously unissued master]
TTITLE10=Ad lib [Previously unissued master]
TTITLE11=Stitt's tune
TTITLE12=I see with my third "I"
TTITLE13=Medley: If I had you - Alone together - For heaven's sake
TTITLE14=Afternoon in Paris
TTITLE15=Lady "E"
EXTD=*Previously released alternate take or only issued as single\n**P
EXTD=reviously unissued take\n1-11 Roland Kirk Quartet:\n          R. 
EXTD=Kirk (tenor sax, stritch, manzello, flute), Wynton Kelly (piano),
EXTD=Vernon Martin (bass), Roy Haynes (drums).  New York,pril 17 and 18
EXTD=, 1962\n12-16 Tubby Hayes and The All Stars:\n            Tubby H
EXTD=ayes (tenor sax, vibes), J.Moody (tenor sax, flute), R. Kirk (ten
EXTD=or sax, manzello, nose-flute, stritch), W. Bishop Jr. (piano), S.
EXTD=Jones (bass), L. Hayes (drums)
EXTT0=
EXTT1=
EXTT2=
EXTT3=
EXTT4=
EXTT5=
EXTT6=
EXTT7=
EXTT8=
EXTT9=
EXTT10=
EXTT11=
EXTT12=
EXTT13=
EXTT14=
EXTT15=
PLAYORDER=
